version = 1
nColumns = 19
nRows = 25
inDegrees = yes
endheader 
time	r_ground_force_vx	r_ground_force_vy	r_ground_force_vz	r_ground_force_px	r_ground_force_py	r_ground_force_pz	l_ground_force_vx	l_ground_force_vy	l_ground_force_vz	l_ground_force_px	l_ground_force_py	l_ground_force_pz	r_ground_torque_x	r_ground_torque_y	r_ground_torque_z	l_ground_torque_x	l_ground_torque_y	l_ground_torque_z	
          0.00000000	       -245.75367954	        187.54853279	       -164.44127010	          0.12313303	          0.00000000	          0.11843299	          0.00000000	          0.00000000	          0.00000000	          0.00000000	          0.00000000	          0.00000000	          0.00000000	         -1.91900061	          0.00000000	          0.00000000	          0.00000000	          0.00000000	
          0.00074263	       -245.75367954	        187.54853279	       -164.44127010	          0.12313303	          0.00000000	          0.11843299	          0.00000000	          0.00000000	          0.00000000	          0.00000000	          0.00000000	          0.00000000	          0.00000000	         -1.91900061	          0.00000000	          0.00000000	          0.00000000	          0.00000000	
          0.00308904	      -1469.11872957	       2166.63378159	      -1135.79471461	          0.16610955	          0.00000000	          0.13779014	          0.00000000	          0.00000000	          0.00000000	          0.00000000	          0.00000000	          0.00000000	          0.00000000	         28.92364228	          0.00000000	          0.00000000	          0.00000000	          0.00000000	
          0.00478959	      -1280.69435766	       3559.03303239	       -353.55877725	          0.15194397	          0.00000000	          0.12686525	          0.00000000	          0.00000000	          0.00000000	          0.00000000	          0.00000000	          0.00000000	          0.00000000	        143.20399956	          0.00000000	          0.00000000	          0.00000000	          0.00000000	
          0.00553222	       -901.86371205	       3489.95429113	       -399.07988189	          0.13214306	          0.00000000	          0.11599729	          0.00000000	          0.00000000	          0.00000000	          0.00000000	          0.00000000	          0.00000000	          0.00000000	         87.68132458	          0.00000000	          0.00000000	          0.00000000	          0.00000000	
          0.00787863	       -116.69996880	       4090.24995974	       -342.67268381	          0.11204813	          0.00000000	          0.10249819	          0.00000000	          0.00000000	          0.00000000	          0.00000000	          0.00000000	          0.00000000	          0.00000000	         36.29755525	          0.00000000	          0.00000000	          0.00000000	          0.00000000	
          0.00957918	       -285.69483327	       4496.85522537	       -247.25794673	          0.11677518	          0.00000000	          0.10140985	          0.00000000	          0.00000000	          0.00000000	          0.00000000	          0.00000000	          0.00000000	          0.00000000	         44.65581810	          0.00000000	          0.00000000	          0.00000000	          0.00000000	
          0.01032181	       -270.97447847	       4495.53676489	       -260.31760693	          0.11783883	          0.00000000	          0.09999486	          0.00000000	          0.00000000	          0.00000000	          0.00000000	          0.00000000	          0.00000000	          0.00000000	         36.73246842	          0.00000000	          0.00000000	          0.00000000	          0.00000000	
          0.01266823	       -257.60667258	       4251.45034926	       -159.86678756	          0.12247349	          0.00000000	          0.09613895	          0.00000000	          0.00000000	          0.00000000	          0.00000000	          0.00000000	          0.00000000	          0.00000000	         22.92181832	          0.00000000	          0.00000000	          0.00000000	          0.00000000	
          0.01436877	       -234.13106411	       3981.46639553	        -88.05263615	          0.12640017	          0.00000000	          0.09385924	          0.00000000	          0.00000000	          0.00000000	          0.00000000	          0.00000000	          0.00000000	          0.00000000	         16.08718386	          0.00000000	          0.00000000	          0.00000000	          0.00000000	
          0.01511141	       -218.79286729	       3867.90519127	        -68.22186351	          0.12810609	          0.00000000	          0.09311146	          0.00000000	          0.00000000	          0.00000000	          0.00000000	          0.00000000	          0.00000000	          0.00000000	         13.75480812	          0.00000000	          0.00000000	          0.00000000	          0.00000000	
          0.01745782	       -163.40474671	       3550.55661950	        -24.56406824	          0.13340217	          0.00000000	          0.09171432	          0.00000000	          0.00000000	          0.00000000	          0.00000000	          0.00000000	          0.00000000	          0.00000000	         10.32666761	          0.00000000	          0.00000000	          0.00000000	          0.00000000	
          0.01915837	       -117.34422853	       3348.13646473	         -7.18993061	          0.13726457	          0.00000000	          0.09143697	          0.00000000	          0.00000000	          0.00000000	          0.00000000	          0.00000000	          0.00000000	          0.00000000	          9.95725354	          0.00000000	          0.00000000	          0.00000000	          0.00000000	
          0.01990100	       -100.17975769	       3260.64591405	         -4.84170511	          0.13910404	          0.00000000	          0.09148769	          0.00000000	          0.00000000	          0.00000000	          0.00000000	          0.00000000	          0.00000000	          0.00000000	          9.95279294	          0.00000000	          0.00000000	          0.00000000	          0.00000000	
          0.02224741	        -48.55088895	       2931.34461099	          2.97780630	          0.14601556	          0.00000000	          0.09211172	          0.00000000	          0.00000000	          0.00000000	          0.00000000	          0.00000000	          0.00000000	          0.00000000	         10.27502498	          0.00000000	          0.00000000	          0.00000000	          0.00000000	
          0.02394796	        -19.85950297	       2648.00197829	          6.98934890	          0.15255455	          0.00000000	          0.09295609	          0.00000000	          0.00000000	          0.00000000	          0.00000000	          0.00000000	          0.00000000	          0.00000000	         10.30241180	          0.00000000	          0.00000000	          0.00000000	          0.00000000	
          0.02469059	        -11.48360304	       2514.64843897	          9.93880387	          0.15600476	          0.00000000	          0.09344723	          0.00000000	          0.00000000	          0.00000000	          0.00000000	          0.00000000	          0.00000000	          0.00000000	         10.36335031	          0.00000000	          0.00000000	          0.00000000	          0.00000000	
          0.02703700	          2.32408450	       2065.62934645	         16.17754685	          0.17024594	          0.00000000	          0.09553651	          0.00000000	          0.00000000	          0.00000000	          0.00000000	          0.00000000	          0.00000000	          0.00000000	         10.02144834	          0.00000000	          0.00000000	          0.00000000	          0.00000000	
          0.02873755	         -0.34518097	       1732.37095572	         17.26537606	          0.18511801	          0.00000000	          0.09772085	          0.00000000	          0.00000000	          0.00000000	          0.00000000	          0.00000000	          0.00000000	          0.00000000	          9.25462533	          0.00000000	          0.00000000	          0.00000000	          0.00000000	
          0.02948018	         -3.09456871	       1590.54430063	         13.83733352	          0.19319160	          0.00000000	          0.09888858	          0.00000000	          0.00000000	          0.00000000	          0.00000000	          0.00000000	          0.00000000	          0.00000000	          8.37259890	          0.00000000	          0.00000000	          0.00000000	          0.00000000	
          0.03182659	         20.58370692	       1388.59075612	         16.35277334	          0.20688405	          0.00000000	          0.10005408	          0.00000000	          0.00000000	          0.00000000	          0.00000000	          0.00000000	          0.00000000	          0.00000000	          7.12198029	          0.00000000	          0.00000000	          0.00000000	          0.00000000	
          0.03352714	         39.35606015	       1303.72705985	         22.75408906	          0.21342144	          0.00000000	          0.09972063	          0.00000000	          0.00000000	          0.00000000	          0.00000000	          0.00000000	          0.00000000	          0.00000000	          6.41179345	          0.00000000	          0.00000000	          0.00000000	          0.00000000	
          0.03426977	         45.81844161	       1262.91315130	         23.22876710	          0.21679443	          0.00000000	          0.09951484	          0.00000000	          0.00000000	          0.00000000	          0.00000000	          0.00000000	          0.00000000	          0.00000000	          5.57085319	          0.00000000	          0.00000000	          0.00000000	          0.00000000	
          0.03661618	         80.73867707	       1218.68920417	         23.14720997	          0.21885150	          0.00000000	          0.10018372	          0.00000000	          0.00000000	          0.00000000	          0.00000000	          0.00000000	          0.00000000	          0.00000000	          6.68028022	          0.00000000	          0.00000000	          0.00000000	          0.00000000	
          0.03831673	        105.02434427	       1174.25043503	         21.37847085	          0.22075243	          0.00000000	          0.10034317	          0.00000000	          0.00000000	          0.00000000	          0.00000000	          0.00000000	          0.00000000	          0.00000000	          6.60856137	          0.00000000	          0.00000000	          0.00000000	          0.00000000	
